<?xml version="1.0" encoding="UTF-8"?> <svg xmlns="http://www.w3.org/2000/svg" width="119" height="44" viewBox="0 0 119 44" fill="none"><path d="M1.99229 25.0376V23.7971H3.41133C3.76843 23.7971 4.08482 23.7439 4.36048 23.6373C4.64241 23.5246 4.88048 23.368 5.0747 23.1675C5.26892 22.967 5.41615 22.732 5.51639 22.4627C5.62289 22.187 5.67615 21.8831 5.67615 21.5511C5.67615 21.2065 5.62289 20.8995 5.51639 20.6301C5.41615 20.3545 5.26892 20.1195 5.0747 19.9253C4.88048 19.7311 4.64241 19.5839 4.36048 19.4836C4.08482 19.3834 3.76843 19.3333 3.41133 19.3333H1.99229V18.0928H3.32675C3.94699 18.0928 4.48892 18.1836 4.95253 18.3653C5.41614 18.547 5.80145 18.7976 6.10843 19.1171C6.41542 19.4304 6.6441 19.7906 6.79446 20.1978C6.95108 20.5988 7.0294 21.0154 7.0294 21.4477V21.6545C7.0294 22.068 6.95108 22.4752 6.79446 22.8761C6.6441 23.2771 6.41542 23.6405 6.10843 23.9663C5.80145 24.292 5.41614 24.552 4.95253 24.7463C4.48892 24.9405 3.94699 25.0376 3.32675 25.0376H1.99229ZM0.845783 25.0376V18.0928H2.18024V25.0376H0.845783ZM8.22436 25V18.1398H9.53063V25H8.22436ZM9.34267 25V23.8723H12.4533V25H9.34267ZM9.34267 22.0773V20.9496H12.2089V22.0773H9.34267ZM9.34267 19.2675V18.1398H12.3781V19.2675H9.34267ZM16.1075 25.1786C15.4998 25.1786 14.986 25.0814 14.5663 24.8872C14.1528 24.693 13.8364 24.4267 13.6171 24.0884C13.3978 23.7439 13.2882 23.3554 13.2882 22.9231H14.5945C14.5945 23.1048 14.6446 23.2834 14.7448 23.4588C14.8451 23.628 15.0048 23.7658 15.2241 23.8723C15.4496 23.9788 15.7441 24.032 16.1075 24.032C16.4333 24.032 16.7058 23.9851 16.9251 23.8911C17.1443 23.7971 17.3072 23.6749 17.4137 23.5246C17.5202 23.368 17.5735 23.1925 17.5735 22.9983C17.5735 22.754 17.4701 22.5598 17.2634 22.4157C17.0566 22.2653 16.7371 22.1713 16.3048 22.1337L15.7034 22.0867C15.0455 22.0304 14.5193 21.8267 14.1246 21.4759C13.7361 21.1188 13.5419 20.6489 13.5419 20.0663C13.5419 19.6277 13.6453 19.2518 13.852 18.9386C14.0588 18.619 14.347 18.3747 14.7166 18.2055C15.0925 18.0301 15.5311 17.9424 16.0323 17.9424C16.5523 17.9424 17.0002 18.0333 17.3761 18.2149C17.752 18.3966 18.0434 18.6535 18.2501 18.9855C18.4569 19.3113 18.5602 19.6966 18.5602 20.1414H17.254C17.254 19.9535 17.207 19.7812 17.113 19.6246C17.0253 19.4617 16.8906 19.3333 16.7089 19.2393C16.5335 19.139 16.308 19.0889 16.0323 19.0889C15.7692 19.0889 15.5499 19.1328 15.3745 19.2205C15.199 19.3082 15.0675 19.4272 14.9798 19.5776C14.892 19.728 14.8482 19.8908 14.8482 20.0663C14.8482 20.2793 14.9265 20.4672 15.0831 20.6301C15.2398 20.7867 15.4872 20.8776 15.8255 20.9027L16.427 20.959C16.9157 20.9966 17.3448 21.1 17.7145 21.2692C18.0841 21.4383 18.3692 21.667 18.5696 21.9552C18.7764 22.2434 18.8798 22.5911 18.8798 22.9983C18.8798 23.4306 18.767 23.8128 18.5414 24.1448C18.3159 24.4706 17.9933 24.7243 17.5735 24.906C17.16 25.0877 16.6713 25.1786 16.1075 25.1786ZM20.1186 25V18.1398H21.4531V25H20.1186ZM26.3602 25.1786C25.7713 25.1786 25.2513 25.0814 24.8002 24.8872C24.3554 24.6867 23.9795 24.4205 23.6725 24.0884C23.3718 23.7501 23.1431 23.3711 22.9865 22.9513C22.8361 22.5253 22.761 22.0836 22.761 21.6263V21.4195C22.761 20.9872 22.8361 20.5643 22.9865 20.1508C23.1369 19.7373 23.3561 19.3646 23.6443 19.0325C23.9388 18.7005 24.299 18.4373 24.7251 18.2431C25.1573 18.0426 25.6523 17.9424 26.2099 17.9424C26.8113 17.9424 27.3439 18.0552 27.8075 18.2807C28.2711 18.5 28.6439 18.8101 28.9258 19.2111C29.2077 19.6058 29.3737 20.0663 29.4239 20.5925H28.08C28.0361 20.2981 27.9265 20.0475 27.7511 19.8407C27.5757 19.6277 27.3533 19.4648 27.0839 19.352C26.8207 19.2393 26.5294 19.1829 26.2099 19.1829C25.8904 19.1829 25.599 19.2393 25.3359 19.352C25.079 19.4648 24.8598 19.6246 24.6781 19.8313C24.4964 20.0381 24.3554 20.2855 24.2552 20.5737C24.1612 20.8619 24.1142 21.1814 24.1142 21.5323C24.1142 21.9145 24.1675 22.2559 24.274 22.5566C24.3805 22.8573 24.5308 23.1142 24.7251 23.3272C24.9193 23.534 25.1542 23.6937 25.4299 23.8065C25.7055 23.913 26.0157 23.9663 26.3602 23.9663C26.8176 23.9663 27.2186 23.8723 27.5631 23.6843C27.9077 23.4901 28.1583 23.2395 28.3149 22.9325L28.08 24.0133V22.2465H29.3111V23.7689C29.0166 24.2137 28.6157 24.5614 28.1082 24.812C27.6007 25.0564 27.0181 25.1786 26.3602 25.1786ZM26.1441 22.5096V21.5135H29.8843V22.5096H26.1441ZM30.9841 25V18.1398H33.1738L36.0588 23.8911H36.369L36.181 24.0602V18.1398H37.4403V25H35.2413L32.3562 19.2487H32.0367L32.2246 19.0795V25H30.9841ZM39.1336 25V18.1398H40.4399V25H39.1336ZM40.2519 25V23.8723H43.3625V25H40.2519ZM40.2519 22.0773V20.9496H43.1182V22.0773H40.2519ZM40.2519 19.2675V18.1398H43.2874V19.2675H40.2519ZM44.7318 25V18.0928H46.0663V25H44.7318ZM48.9231 25L46.8181 22.0116H48.3123L50.4831 25H48.9231ZM45.6716 22.707V21.6263H47.4195C47.6638 21.6263 47.8737 21.5761 48.0491 21.4759C48.2308 21.3757 48.3718 21.2347 48.472 21.053C48.5723 20.8713 48.6224 20.6646 48.6224 20.4328C48.6224 20.1947 48.5723 19.9848 48.472 19.8031C48.3718 19.6214 48.2308 19.4805 48.0491 19.3802C47.8737 19.28 47.6638 19.2299 47.4195 19.2299H45.6716V18.0928H47.2785C47.8299 18.0928 48.306 18.1742 48.707 18.3371C49.1142 18.5 49.4275 18.7475 49.6467 19.0795C49.866 19.4116 49.9757 19.8282 49.9757 20.3294V20.4798C49.9757 20.9872 49.8629 21.4039 49.6373 21.7296C49.4181 22.0554 49.1079 22.2998 48.707 22.4627C48.306 22.6255 47.8299 22.707 47.2785 22.707H45.6716ZM54.642 25.047V23.9757H56.3618C56.675 23.9757 56.9131 23.8911 57.076 23.7219C57.2389 23.5465 57.3203 23.3084 57.3203 23.0077C57.3203 22.707 57.2389 22.4752 57.076 22.3123C56.9131 22.1431 56.675 22.0586 56.3618 22.0586H54.642V21.241H56.2678C56.7251 21.241 57.1324 21.2973 57.4895 21.4101C57.8528 21.5166 58.1348 21.6983 58.3353 21.9552C58.542 22.212 58.6454 22.5566 58.6454 22.9889V23.1205C58.6454 23.5277 58.5545 23.8754 58.3728 24.1636C58.1974 24.4455 57.9312 24.6648 57.574 24.8214C57.2232 24.9718 56.7878 25.047 56.2678 25.047H54.642ZM53.5237 25.047V18.0928H54.83V25.047H53.5237ZM54.642 21.8424V21.0248H56.108C56.4275 21.0248 56.6625 20.9402 56.8128 20.7711C56.9632 20.6019 57.0384 20.3764 57.0384 20.0945C57.0384 19.8125 56.9632 19.587 56.8128 19.4178C56.6625 19.2487 56.4275 19.1641 56.108 19.1641H54.642V18.0928H55.9859C56.7627 18.0928 57.3516 18.2557 57.7526 18.5814C58.1598 18.9072 58.3634 19.374 58.3634 19.9817V20.1133C58.3634 20.5393 58.2601 20.8807 58.0533 21.1376C57.8528 21.3882 57.574 21.5699 57.2169 21.6827C56.8598 21.7892 56.4495 21.8424 55.9859 21.8424H54.642ZM61.034 22.3781L58.9666 18.1398H60.3386L61.9174 21.4571L61.6167 21.3631H62.5095L62.19 21.4571L63.6278 18.1398H64.9246L63.0169 22.3781H61.034ZM61.3724 25V22.1713H62.6786V25H61.3724ZM65.4378 25V23.4964H66.9038V25H65.4378ZM65.4378 21.7578V20.2542H66.9038V21.7578H65.4378Z" fill="white"></path><path d="M111 0H71L81 15L74.5 25L83 37L100 11.5H119L111 0Z" fill="white"></path><path d="M102.5 16.5H119L109 31.5L119 44H102.5L92.5 31.5L102.5 16.5Z" fill="white"></path></svg> 