<?xml version="1.0" encoding="UTF-8"?> <svg xmlns="http://www.w3.org/2000/svg" width="324" height="45" viewBox="0 0 324 45" fill="none"><path d="M41.6026 29.3652C39.9185 29.3652 38.2852 29.142 36.7026 28.6957C35.1403 28.229 33.8823 27.6304 32.9287 26.9L34.6026 23.187C35.5156 23.8565 36.6011 24.3942 37.8591 24.8C39.1171 25.2058 40.3751 25.4087 41.633 25.4087C43.033 25.4087 44.0678 25.2058 44.7374 24.8C45.4069 24.3739 45.7417 23.8159 45.7417 23.1261C45.7417 22.6188 45.5388 22.2029 45.133 21.8783C44.7475 21.5333 44.2403 21.2594 43.6113 21.0565C43.0026 20.8536 42.1707 20.6304 41.1156 20.387C39.4925 20.0014 38.1635 19.6159 37.1287 19.2304C36.0939 18.8449 35.2011 18.2261 34.4504 17.3739C33.72 16.5217 33.3548 15.3855 33.3548 13.9652C33.3548 12.7275 33.6896 11.6116 34.3591 10.6174C35.0287 9.6029 36.033 8.80145 37.3722 8.21304C38.7316 7.62464 40.3852 7.33043 42.333 7.33043C43.6925 7.33043 45.0214 7.49275 46.32 7.81739C47.6185 8.14203 48.7548 8.60869 49.7287 9.21739L48.2069 12.9609C46.2388 11.8449 44.2707 11.287 42.3026 11.287C40.9229 11.287 39.8982 11.5101 39.2287 11.9565C38.5794 12.4029 38.2548 12.9913 38.2548 13.7217C38.2548 14.4522 38.6301 15 39.3809 15.3652C40.1519 15.7101 41.3185 16.0551 42.8809 16.4C44.504 16.7855 45.833 17.171 46.8678 17.5565C47.9026 17.942 48.7852 18.5507 49.5156 19.3826C50.2664 20.2145 50.6417 21.3406 50.6417 22.7609C50.6417 23.9783 50.2968 25.0942 49.6069 26.1087C48.9374 27.1029 47.9229 27.8942 46.5635 28.4826C45.204 29.071 43.5504 29.3652 41.6026 29.3652ZM51.8498 12.6261H56.5977V29H51.8498V12.6261ZM54.2238 10.3435C53.3513 10.3435 52.6411 10.0899 52.0933 9.58261C51.5455 9.07536 51.2716 8.44637 51.2716 7.69565C51.2716 6.94493 51.5455 6.31594 52.0933 5.80869C52.6411 5.30145 53.3513 5.04782 54.2238 5.04782C55.0962 5.04782 55.8064 5.2913 56.3542 5.77826C56.902 6.26522 57.1759 6.87391 57.1759 7.60435C57.1759 8.39565 56.902 9.05507 56.3542 9.58261C55.8064 10.0899 55.0962 10.3435 54.2238 10.3435ZM69.7388 28.2087C69.2722 28.5536 68.6939 28.8174 68.0041 29C67.3345 29.1623 66.6243 29.2435 65.8736 29.2435C63.9258 29.2435 62.4142 28.7464 61.3388 27.7522C60.2838 26.758 59.7562 25.2971 59.7562 23.3696V16.6435H57.2301V12.9913H59.7562V9.00435H64.5041V12.9913H68.5823V16.6435H64.5041V23.3087C64.5041 23.9986 64.6765 24.5362 65.0214 24.9217C65.3867 25.287 65.8939 25.4696 66.5432 25.4696C67.2939 25.4696 67.933 25.2667 68.4606 24.8609L69.7388 28.2087ZM86.1118 20.8739C86.1118 20.9348 86.0814 21.3609 86.0205 22.1522H73.6335C73.8567 23.1667 74.3843 23.9681 75.2162 24.5565C76.048 25.1449 77.0828 25.4391 78.3205 25.4391C79.1727 25.4391 79.9234 25.3174 80.5727 25.0739C81.2422 24.8101 81.8611 24.4043 82.4292 23.8565L84.9553 26.5957C83.4133 28.3609 81.1611 29.2435 78.1988 29.2435C76.3524 29.2435 74.719 28.8884 73.2988 28.1783C71.8785 27.4478 70.7828 26.4435 70.0118 25.1652C69.2408 23.887 68.8553 22.4362 68.8553 20.813C68.8553 19.2101 69.2306 17.7696 69.9814 16.4913C70.7524 15.1928 71.7973 14.1884 73.1161 13.4783C74.4553 12.7478 75.9466 12.3826 77.5901 12.3826C79.193 12.3826 80.6437 12.7275 81.9422 13.4174C83.2408 14.1072 84.2553 15.1014 84.9857 16.4C85.7364 17.6783 86.1118 19.1696 86.1118 20.8739ZM77.6205 15.9739C76.5451 15.9739 75.6422 16.2783 74.9118 16.887C74.1814 17.4957 73.735 18.3275 73.5727 19.3826H81.6379C81.4756 18.3478 81.0292 17.5261 80.2988 16.9174C79.5683 16.2884 78.6756 15.9739 77.6205 15.9739ZM87.7814 7.69565H92.7119V24.9826H103.394V29H87.7814V7.69565ZM111.661 29.2435C109.936 29.2435 108.384 28.8884 107.004 28.1783C105.645 27.4478 104.58 26.4435 103.809 25.1652C103.038 23.887 102.652 22.4362 102.652 20.813C102.652 19.1899 103.038 17.7391 103.809 16.4609C104.58 15.1826 105.645 14.1884 107.004 13.4783C108.384 12.7478 109.936 12.3826 111.661 12.3826C113.385 12.3826 114.928 12.7478 116.287 13.4783C117.646 14.1884 118.712 15.1826 119.483 16.4609C120.254 17.7391 120.639 19.1899 120.639 20.813C120.639 22.4362 120.254 23.887 119.483 25.1652C118.712 26.4435 117.646 27.4478 116.287 28.1783C114.928 28.8884 113.385 29.2435 111.661 29.2435ZM111.661 25.3478C112.878 25.3478 113.872 24.942 114.643 24.1304C115.435 23.2986 115.83 22.1928 115.83 20.813C115.83 19.4333 115.435 18.3377 114.643 17.5261C113.872 16.6942 112.878 16.2783 111.661 16.2783C110.443 16.2783 109.439 16.6942 108.648 17.5261C107.857 18.3377 107.461 19.4333 107.461 20.813C107.461 22.1928 107.857 23.2986 108.648 24.1304C109.439 24.942 110.443 25.3478 111.661 25.3478ZM129.9 29.2435C128.155 29.2435 126.582 28.8884 125.182 28.1783C123.803 27.4478 122.717 26.4435 121.926 25.1652C121.155 23.887 120.769 22.4362 120.769 20.813C120.769 19.1899 121.155 17.7391 121.926 16.4609C122.717 15.1826 123.803 14.1884 125.182 13.4783C126.582 12.7478 128.155 12.3826 129.9 12.3826C131.624 12.3826 133.126 12.7478 134.404 13.4783C135.703 14.1884 136.646 15.213 137.234 16.5522L133.552 18.5304C132.7 17.029 131.472 16.2783 129.869 16.2783C128.631 16.2783 127.607 16.6841 126.795 17.4957C125.984 18.3072 125.578 19.413 125.578 20.813C125.578 22.213 125.984 23.3188 126.795 24.1304C127.607 24.942 128.631 25.3478 129.869 25.3478C131.492 25.3478 132.72 24.5971 133.552 23.0957L137.234 25.1043C136.646 26.4029 135.703 27.4174 134.404 28.1478C133.126 28.8783 131.624 29.2435 129.9 29.2435ZM145.054 22.5783L142.771 24.8304V29H138.023V6.41739H142.771V19.2L149.71 12.6261H155.371L148.554 19.5652L155.98 29H150.227L145.054 22.5783Z" fill="white"></path><path d="M35.9816 40.0519C35.5273 40.0519 35.1162 39.9524 34.7484 39.7534C34.385 39.55 34.0994 39.2731 33.8917 38.9226C33.684 38.5678 33.5802 38.1697 33.5802 37.7284C33.5802 37.287 33.684 36.8911 33.8917 36.5406C34.0994 36.1858 34.3871 35.9089 34.7549 35.7099C35.1227 35.5065 35.5338 35.4048 35.9881 35.4048C36.3429 35.4048 36.6674 35.4654 36.9616 35.5866C37.2559 35.7034 37.5068 35.8786 37.7145 36.1123L37.2926 36.5212C36.9508 36.162 36.5246 35.9825 36.014 35.9825C35.6765 35.9825 35.3715 36.0582 35.0989 36.2096C34.8263 36.3611 34.6121 36.5709 34.4564 36.8392C34.3049 37.1031 34.2292 37.3995 34.2292 37.7284C34.2292 38.0572 34.3049 38.3558 34.4564 38.624C34.6121 38.888 34.8263 39.0957 35.0989 39.2471C35.3715 39.3986 35.6765 39.4743 36.014 39.4743C36.5203 39.4743 36.9465 39.2926 37.2926 38.9291L37.7145 39.338C37.5068 39.5716 37.2537 39.749 36.9551 39.8702C36.6609 39.9913 36.3364 40.0519 35.9816 40.0519ZM42.8461 39.4353V40H39.5491V35.4568H42.7553V36.0214H40.1981V37.4168H42.4762V37.9685H40.1981V39.4353H42.8461ZM47.8432 40L46.8632 38.6046C46.742 38.6132 46.6468 38.6176 46.5776 38.6176H45.4548V40H44.8057V35.4568H46.5776C47.166 35.4568 47.629 35.5974 47.9665 35.8786C48.304 36.1599 48.4728 36.5471 48.4728 37.0404C48.4728 37.3909 48.3862 37.6894 48.2132 37.9361C48.0401 38.1827 47.7934 38.3623 47.4733 38.4748L48.5507 40H47.8432ZM46.5581 38.0659C46.9692 38.0659 47.2829 37.9772 47.4992 37.7998C47.7156 37.6224 47.8237 37.3692 47.8237 37.0404C47.8237 36.7116 47.7156 36.4606 47.4992 36.2875C47.2829 36.1101 46.9692 36.0214 46.5581 36.0214H45.4548V38.0659H46.5581ZM51.2688 36.0214H49.7111V35.4568H53.469V36.0214H51.9113V40H51.2688V36.0214ZM55.0846 35.4568H55.7336V40H55.0846V35.4568ZM58.6515 36.0214V37.6051H60.9296V38.1632H58.6515V40H58.0024V35.4568H61.2087V36.0214H58.6515ZM63.0309 35.4568H63.68V40H63.0309V35.4568ZM67.9803 40.0519C67.526 40.0519 67.1149 39.9524 66.7471 39.7534C66.3837 39.55 66.0981 39.2731 65.8904 38.9226C65.6827 38.5678 65.5788 38.1697 65.5788 37.7284C65.5788 37.287 65.6827 36.8911 65.8904 36.5406C66.0981 36.1858 66.3858 35.9089 66.7536 35.7099C67.1214 35.5065 67.5324 35.4048 67.9868 35.4048C68.3416 35.4048 68.6661 35.4654 68.9603 35.5866C69.2545 35.7034 69.5055 35.8786 69.7132 36.1123L69.2913 36.5212C68.9495 36.162 68.5233 35.9825 68.0127 35.9825C67.6752 35.9825 67.3702 36.0582 67.0976 36.2096C66.825 36.3611 66.6108 36.5709 66.455 36.8392C66.3036 37.1031 66.2279 37.3995 66.2279 37.7284C66.2279 38.0572 66.3036 38.3558 66.455 38.624C66.6108 38.888 66.825 39.0957 67.0976 39.2471C67.3702 39.3986 67.6752 39.4743 68.0127 39.4743C68.519 39.4743 68.9452 39.2926 69.2913 38.9291L69.7132 39.338C69.5055 39.5716 69.2524 39.749 68.9538 39.8702C68.6596 39.9913 68.3351 40.0519 67.9803 40.0519ZM74.3347 38.8642H71.9203L71.4205 40H70.752L72.8095 35.4568H73.452L75.5159 40H74.8344L74.3347 38.8642ZM74.1075 38.345L73.1275 36.1188L72.1474 38.345H74.1075ZM77.1023 35.4568H79.017C79.4973 35.4568 79.9235 35.5519 80.2956 35.7423C80.6677 35.9327 80.9554 36.201 81.1588 36.5471C81.3665 36.889 81.4703 37.2827 81.4703 37.7284C81.4703 38.174 81.3665 38.57 81.1588 38.9161C80.9554 39.2579 80.6677 39.524 80.2956 39.7144C79.9235 39.9048 79.4973 40 79.017 40H77.1023V35.4568ZM78.978 39.4353C79.3458 39.4353 79.6682 39.3639 79.9451 39.2212C80.2263 39.0784 80.4427 38.8793 80.5941 38.624C80.7456 38.3644 80.8213 38.0659 80.8213 37.7284C80.8213 37.3909 80.7456 37.0945 80.5941 36.8392C80.4427 36.5796 80.2263 36.3784 79.9451 36.2356C79.6682 36.0928 79.3458 36.0214 78.978 36.0214H77.7513V39.4353H78.978ZM85.4241 40.0519C84.9654 40.0519 84.5522 39.9524 84.1844 39.7534C83.8166 39.55 83.5267 39.2709 83.3147 38.9161C83.107 38.5613 83.0032 38.1654 83.0032 37.7284C83.0032 37.2914 83.107 36.8954 83.3147 36.5406C83.5267 36.1858 83.8166 35.9089 84.1844 35.7099C84.5522 35.5065 84.9654 35.4048 85.4241 35.4048C85.8784 35.4048 86.2894 35.5065 86.6572 35.7099C87.025 35.9089 87.3127 36.1858 87.5204 36.5406C87.7281 36.8911 87.832 37.287 87.832 37.7284C87.832 38.1697 87.7281 38.5678 87.5204 38.9226C87.3127 39.2731 87.025 39.55 86.6572 39.7534C86.2894 39.9524 85.8784 40.0519 85.4241 40.0519ZM85.4241 39.4743C85.7572 39.4743 86.0558 39.3986 86.3197 39.2471C86.588 39.0957 86.7978 38.888 86.9493 38.624C87.1051 38.3558 87.1829 38.0572 87.1829 37.7284C87.1829 37.3995 87.1051 37.1031 86.9493 36.8392C86.7978 36.5709 86.588 36.3611 86.3197 36.2096C86.0558 36.0582 85.7572 35.9825 85.4241 35.9825C85.0909 35.9825 84.788 36.0582 84.5154 36.2096C84.2471 36.3611 84.0351 36.5709 83.8794 36.8392C83.7279 37.1031 83.6522 37.3995 83.6522 37.7284C83.6522 38.0572 83.7279 38.3558 83.8794 38.624C84.0351 38.888 84.2471 39.0957 84.5154 39.2471C84.788 39.3986 85.0909 39.4743 85.4241 39.4743ZM92.3843 35.4568H94.2989C94.7792 35.4568 95.2054 35.5519 95.5775 35.7423C95.9497 35.9327 96.2374 36.201 96.4408 36.5471C96.6485 36.889 96.7523 37.2827 96.7523 37.7284C96.7523 38.174 96.6485 38.57 96.4408 38.9161C96.2374 39.2579 95.9497 39.524 95.5775 39.7144C95.2054 39.9048 94.7792 40 94.2989 40H92.3843V35.4568ZM94.26 39.4353C94.6278 39.4353 94.9501 39.3639 95.2271 39.2212C95.5083 39.0784 95.7247 38.8793 95.8761 38.624C96.0275 38.3644 96.1033 38.0659 96.1033 37.7284C96.1033 37.3909 96.0275 37.0945 95.8761 36.8392C95.7247 36.5796 95.5083 36.3784 95.2271 36.2356C94.9501 36.0928 94.6278 36.0214 94.26 36.0214H93.0333V39.4353H94.26ZM101.952 39.4353V40H98.6551V35.4568H101.861V36.0214H99.3041V37.4168H101.582V37.9685H99.3041V39.4353H101.952ZM107.887 40.0519C107.546 40.0519 107.215 40 106.894 39.8962C106.579 39.788 106.33 39.6495 106.148 39.4808L106.388 38.9745C106.561 39.1303 106.782 39.2579 107.05 39.3575C107.323 39.4526 107.602 39.5002 107.887 39.5002C108.264 39.5002 108.545 39.4375 108.731 39.312C108.917 39.1822 109.01 39.0113 109.01 38.7993C109.01 38.6435 108.958 38.518 108.855 38.4228C108.755 38.3233 108.63 38.2476 108.478 38.1957C108.331 38.1438 108.121 38.0853 107.849 38.0204C107.507 37.9382 107.23 37.856 107.018 37.7738C106.81 37.6916 106.63 37.5661 106.479 37.3974C106.332 37.2243 106.258 36.9928 106.258 36.7029C106.258 36.4606 106.321 36.2421 106.447 36.0474C106.576 35.8527 106.771 35.6969 107.031 35.5801C107.29 35.4632 107.613 35.4048 107.998 35.4048C108.266 35.4048 108.53 35.4394 108.79 35.5087C109.049 35.5779 109.272 35.6774 109.458 35.8072L109.244 36.3265C109.054 36.2053 108.85 36.1144 108.634 36.0539C108.418 35.989 108.205 35.9565 107.998 35.9565C107.63 35.9565 107.353 36.0236 107.167 36.1577C106.985 36.2918 106.894 36.4649 106.894 36.6769C106.894 36.8327 106.946 36.9604 107.05 37.0599C107.154 37.1551 107.282 37.2308 107.433 37.287C107.589 37.339 107.799 37.3952 108.063 37.4558C108.405 37.538 108.679 37.6202 108.887 37.7024C109.095 37.7846 109.272 37.9101 109.419 38.0789C109.571 38.2476 109.646 38.4748 109.646 38.7603C109.646 38.9983 109.581 39.2168 109.452 39.4159C109.322 39.6106 109.125 39.7663 108.861 39.8832C108.597 39.9957 108.273 40.0519 107.887 40.0519ZM114.8 39.4353V40H111.503V35.4568H114.709V36.0214H112.152V37.4168H114.43V37.9685H112.152V39.4353H114.8ZM119.889 37.7024H120.512V39.4743C120.287 39.6603 120.025 39.8031 119.726 39.9026C119.428 40.0022 119.116 40.0519 118.792 40.0519C118.333 40.0519 117.92 39.9524 117.552 39.7534C117.184 39.55 116.894 39.2731 116.682 38.9226C116.475 38.5678 116.371 38.1697 116.371 37.7284C116.371 37.287 116.475 36.889 116.682 36.5342C116.894 36.1793 117.184 35.9024 117.552 35.7034C117.924 35.5044 118.342 35.4048 118.805 35.4048C119.168 35.4048 119.497 35.4654 119.791 35.5866C120.09 35.7034 120.343 35.8765 120.551 36.1058L120.148 36.5082C119.785 36.1577 119.346 35.9825 118.831 35.9825C118.485 35.9825 118.173 36.0582 117.896 36.2096C117.624 36.3568 117.409 36.5644 117.254 36.8327C117.098 37.0967 117.02 37.3952 117.02 37.7284C117.02 38.0572 117.098 38.3558 117.254 38.624C117.409 38.888 117.624 39.0957 117.896 39.2471C118.173 39.3986 118.482 39.4743 118.824 39.4743C119.231 39.4743 119.586 39.3769 119.889 39.1822V37.7024ZM124.545 40.0519C123.939 40.0519 123.468 39.8788 123.13 39.5327C122.793 39.1865 122.624 38.6889 122.624 38.0399V35.4568H123.273V38.014C123.273 38.9875 123.699 39.4743 124.552 39.4743C124.967 39.4743 125.285 39.3553 125.506 39.1173C125.726 38.875 125.837 38.5072 125.837 38.014V35.4568H126.466V38.0399C126.466 38.6933 126.298 39.193 125.96 39.5392C125.623 39.881 125.151 40.0519 124.545 40.0519ZM131.743 40L130.763 38.6046C130.642 38.6132 130.547 38.6176 130.478 38.6176H129.355V40H128.706V35.4568H130.478C131.066 35.4568 131.529 35.5974 131.866 35.8786C132.204 36.1599 132.373 36.5471 132.373 37.0404C132.373 37.3909 132.286 37.6894 132.113 37.9361C131.94 38.1827 131.693 38.3623 131.373 38.4748L132.451 40H131.743ZM130.458 38.0659C130.869 38.0659 131.183 37.9772 131.399 37.7998C131.615 37.6224 131.724 37.3692 131.724 37.0404C131.724 36.7116 131.615 36.4606 131.399 36.2875C131.183 36.1101 130.869 36.0214 130.458 36.0214H129.355V38.0659H130.458ZM137.225 38.8642H134.81L134.31 40H133.642L135.699 35.4568H136.342L138.406 40H137.724L137.225 38.8642ZM136.997 38.345L136.017 36.1188L135.037 38.345H136.997ZM143.899 35.4568V40H143.367L140.641 36.612V40H139.992V35.4568H140.524L143.25 38.8447V35.4568H143.899ZM148.199 40.0519C147.745 40.0519 147.334 39.9524 146.966 39.7534C146.603 39.55 146.317 39.2731 146.11 38.9226C145.902 38.5678 145.798 38.1697 145.798 37.7284C145.798 37.287 145.902 36.8911 146.11 36.5406C146.317 36.1858 146.605 35.9089 146.973 35.7099C147.341 35.5065 147.752 35.4048 148.206 35.4048C148.561 35.4048 148.885 35.4654 149.18 35.5866C149.474 35.7034 149.725 35.8786 149.932 36.1123L149.511 36.5212C149.169 36.162 148.743 35.9825 148.232 35.9825C147.894 35.9825 147.589 36.0582 147.317 36.2096C147.044 36.3611 146.83 36.5709 146.674 36.8392C146.523 37.1031 146.447 37.3995 146.447 37.7284C146.447 38.0572 146.523 38.3558 146.674 38.624C146.83 38.888 147.044 39.0957 147.317 39.2471C147.589 39.3986 147.894 39.4743 148.232 39.4743C148.738 39.4743 149.164 39.2926 149.511 38.9291L149.932 39.338C149.725 39.5716 149.472 39.749 149.173 39.8702C148.879 39.9913 148.554 40.0519 148.199 40.0519ZM147.933 41.4538C147.708 41.4538 147.516 41.4062 147.356 41.3111L147.492 40.993C147.622 41.0666 147.769 41.1034 147.933 41.1034C148.176 41.1034 148.297 41.0168 148.297 40.8437C148.297 40.7659 148.267 40.7031 148.206 40.6555C148.145 40.6123 148.052 40.5906 147.927 40.5906H147.752L147.914 39.9546H148.271L148.174 40.3245C148.355 40.3418 148.494 40.3981 148.589 40.4933C148.688 40.5928 148.738 40.7161 148.738 40.8632C148.738 41.0449 148.665 41.1877 148.518 41.2916C148.37 41.3998 148.176 41.4538 147.933 41.4538ZM154.554 38.8642H152.139L151.64 40H150.971L153.029 35.4568H153.671L155.735 40H155.054L154.554 38.8642ZM154.327 38.345L153.347 36.1188L152.367 38.345H154.327Z" fill="white"></path><path d="M23.7819 21.6696H27.1869C27.6439 21.6696 28 22.0713 28 22.5228V40.1966C28 40.6481 27.6439 41 27.1869 41H0.813055C0.356118 41 0 40.6481 0 40.1966V22.5228C0 22.0713 0.356118 21.6696 0.813055 21.6696H4.11569V13.4352C4.11569 8.81594 7.11423 5 11.7389 5H16.1099C20.7849 5 23.7835 8.81594 23.7835 13.4352V21.6696H23.7819ZM8.43626 21.6696H19.515V13.8369C19.515 11.2758 17.3799 9.1164 14.7374 9.1164H13.1617C10.5697 9.1164 8.43626 11.2758 8.43626 13.8369V21.6696ZM11.6364 35.8794H16.3619L15.1928 30.8086C16.0058 30.4069 16.5652 29.5538 16.5652 28.5994C16.5652 27.1437 15.396 26.0383 13.9732 26.0383C12.5503 26.0383 11.4316 27.1437 11.4316 28.5994C11.4316 29.5538 11.9909 30.4069 12.804 30.8086L11.6364 35.8794Z" fill="white"></path><path d="M236.972 23.013H241.476V31.6565C240.319 32.529 238.98 33.1986 237.459 33.6652C235.937 34.1319 234.405 34.3652 232.863 34.3652C230.651 34.3652 228.663 33.8986 226.898 32.9652C225.132 32.0116 223.743 30.7029 222.728 29.0391C221.734 27.3551 221.237 25.458 221.237 23.3478C221.237 21.2377 221.734 19.3507 222.728 17.687C223.743 16.0029 225.143 14.6942 226.928 13.7609C228.714 12.8072 230.722 12.3304 232.954 12.3304C234.821 12.3304 236.515 12.6449 238.037 13.2739C239.559 13.9029 240.837 14.8159 241.872 16.013L238.706 18.9348C237.185 17.3319 235.348 16.5304 233.198 16.5304C231.838 16.5304 230.631 16.8145 229.576 17.3826C228.521 17.9507 227.699 18.7522 227.111 19.787C226.522 20.8217 226.228 22.0087 226.228 23.3478C226.228 24.6667 226.522 25.8435 227.111 26.8783C227.699 27.913 228.511 28.7246 229.545 29.313C230.601 29.8812 231.798 30.1652 233.137 30.1652C234.557 30.1652 235.835 29.8609 236.972 29.2522V23.013ZM251.686 34.2435C249.962 34.2435 248.41 33.8884 247.03 33.1783C245.67 32.4478 244.605 31.4435 243.834 30.1652C243.063 28.887 242.678 27.4362 242.678 25.813C242.678 24.1899 243.063 22.7391 243.834 21.4609C244.605 20.1826 245.67 19.1884 247.03 18.4783C248.41 17.7478 249.962 17.3826 251.686 17.3826C253.411 17.3826 254.953 17.7478 256.312 18.4783C257.672 19.1884 258.737 20.1826 259.508 21.4609C260.279 22.7391 260.665 24.1899 260.665 25.813C260.665 27.4362 260.279 28.887 259.508 30.1652C258.737 31.4435 257.672 32.4478 256.312 33.1783C254.953 33.8884 253.411 34.2435 251.686 34.2435ZM251.686 30.3478C252.904 30.3478 253.898 29.942 254.669 29.1304C255.46 28.2986 255.856 27.1928 255.856 25.813C255.856 24.4333 255.46 23.3377 254.669 22.5261C253.898 21.6942 252.904 21.2783 251.686 21.2783C250.469 21.2783 249.465 21.6942 248.673 22.5261C247.882 23.3377 247.486 24.4333 247.486 25.813C247.486 27.1928 247.882 28.2986 248.673 29.1304C249.465 29.942 250.469 30.3478 251.686 30.3478ZM269.803 34.2435C268.079 34.2435 266.527 33.8884 265.147 33.1783C263.787 32.4478 262.722 31.4435 261.951 30.1652C261.18 28.887 260.795 27.4362 260.795 25.813C260.795 24.1899 261.18 22.7391 261.951 21.4609C262.722 20.1826 263.787 19.1884 265.147 18.4783C266.527 17.7478 268.079 17.3826 269.803 17.3826C271.528 17.3826 273.07 17.7478 274.429 18.4783C275.789 19.1884 276.854 20.1826 277.625 21.4609C278.396 22.7391 278.782 24.1899 278.782 25.813C278.782 27.4362 278.396 28.887 277.625 30.1652C276.854 31.4435 275.789 32.4478 274.429 33.1783C273.07 33.8884 271.528 34.2435 269.803 34.2435ZM269.803 30.3478C271.021 30.3478 272.015 29.942 272.786 29.1304C273.577 28.2986 273.973 27.1928 273.973 25.813C273.973 24.4333 273.577 23.3377 272.786 22.5261C272.015 21.6942 271.021 21.2783 269.803 21.2783C268.586 21.2783 267.582 21.6942 266.79 22.5261C265.999 23.3377 265.603 24.4333 265.603 25.813C265.603 27.1928 265.999 28.2986 266.79 29.1304C267.582 29.942 268.586 30.3478 269.803 30.3478ZM297.02 17.6261V31.2609C297.02 34.2638 296.239 36.4957 294.677 37.9565C293.115 39.4174 290.832 40.1478 287.829 40.1478C286.246 40.1478 284.745 39.9551 283.325 39.5696C281.904 39.1841 280.728 38.6261 279.794 37.8957L281.681 34.487C282.371 35.0551 283.244 35.5014 284.299 35.8261C285.354 36.171 286.409 36.3435 287.464 36.3435C289.107 36.3435 290.315 35.9681 291.086 35.2174C291.877 34.487 292.273 33.371 292.273 31.8696V31.1696C291.035 32.529 289.31 33.2087 287.099 33.2087C285.597 33.2087 284.217 32.8841 282.959 32.2348C281.722 31.5652 280.738 30.6319 280.007 29.4348C279.277 28.2377 278.912 26.858 278.912 25.2957C278.912 23.7333 279.277 22.3536 280.007 21.1565C280.738 19.9594 281.722 19.0362 282.959 18.387C284.217 17.7174 285.597 17.3826 287.099 17.3826C289.473 17.3826 291.278 18.1638 292.516 19.7261V17.6261H297.02ZM288.042 29.313C289.3 29.313 290.325 28.9478 291.116 28.2174C291.928 27.4667 292.333 26.4928 292.333 25.2957C292.333 24.0985 291.928 23.1348 291.116 22.4043C290.325 21.6536 289.3 21.2783 288.042 21.2783C286.784 21.2783 285.749 21.6536 284.938 22.4043C284.126 23.1348 283.72 24.0985 283.72 25.2957C283.72 26.4928 284.126 27.4667 284.938 28.2174C285.749 28.9478 286.784 29.313 288.042 29.313ZM299.613 11.4174H304.361V34H299.613V11.4174ZM322.981 25.8739C322.981 25.9348 322.95 26.3609 322.889 27.1522H310.502C310.725 28.1667 311.253 28.9681 312.085 29.5565C312.917 30.1449 313.952 30.4391 315.189 30.4391C316.041 30.4391 316.792 30.3174 317.441 30.0739C318.111 29.8101 318.73 29.4043 319.298 28.8565L321.824 31.5957C320.282 33.3609 318.03 34.2435 315.067 34.2435C313.221 34.2435 311.588 33.8884 310.167 33.1783C308.747 32.4478 307.652 31.4435 306.881 30.1652C306.11 28.887 305.724 27.4362 305.724 25.813C305.724 24.2101 306.099 22.7696 306.85 21.4913C307.621 20.1928 308.666 19.1884 309.985 18.4783C311.324 17.7478 312.815 17.3826 314.459 17.3826C316.062 17.3826 317.512 17.7275 318.811 18.4174C320.11 19.1072 321.124 20.1014 321.854 21.4C322.605 22.6783 322.981 24.1696 322.981 25.8739ZM314.489 20.9739C313.414 20.9739 312.511 21.2783 311.781 21.887C311.05 22.4957 310.604 23.3275 310.441 24.3826H318.507C318.344 23.3478 317.898 22.5261 317.167 21.9174C316.437 21.2884 315.544 20.9739 314.489 20.9739Z" fill="white"></path><path d="M246.166 14.0779C245.654 14.0779 245.157 14 244.677 13.8442C244.203 13.682 243.83 13.4743 243.557 13.2212L243.917 12.4618C244.177 12.6954 244.508 12.8869 244.91 13.0362C245.319 13.179 245.738 13.2504 246.166 13.2504C246.731 13.2504 247.153 13.1563 247.432 12.968C247.711 12.7733 247.851 12.517 247.851 12.1989C247.851 11.9653 247.773 11.7771 247.617 11.6343C247.468 11.485 247.279 11.3714 247.052 11.2935C246.832 11.2156 246.517 11.128 246.108 11.0307C245.595 10.9073 245.18 10.784 244.862 10.6607C244.55 10.5374 244.281 10.3492 244.054 10.0961C243.833 9.83644 243.723 9.48921 243.723 9.05435C243.723 8.69089 243.817 8.36313 244.005 8.07107C244.2 7.779 244.492 7.54535 244.881 7.37011C245.271 7.19487 245.754 7.10725 246.332 7.10725C246.734 7.10725 247.13 7.15917 247.52 7.26302C247.909 7.36686 248.243 7.51614 248.522 7.71085L248.201 8.48969C247.915 8.30796 247.61 8.17167 247.286 8.0808C246.961 7.98345 246.643 7.93477 246.332 7.93477C245.78 7.93477 245.365 8.03537 245.086 8.23657C244.813 8.43777 244.677 8.69738 244.677 9.01541C244.677 9.24906 244.755 9.44053 244.91 9.58981C245.066 9.7326 245.258 9.84618 245.485 9.93055C245.718 10.0084 246.033 10.0928 246.429 10.1837C246.942 10.307 247.354 10.4303 247.666 10.5536C247.977 10.6769 248.243 10.8652 248.464 11.1183C248.691 11.3714 248.805 11.7122 248.805 12.1405C248.805 12.4975 248.707 12.8252 248.513 13.1238C248.318 13.4159 248.023 13.6495 247.627 13.8248C247.231 13.9935 246.744 14.0779 246.166 14.0779ZM249.701 8.84017H250.636V14H249.701V8.84017ZM250.168 7.84715C249.987 7.84715 249.834 7.78874 249.711 7.67191C249.594 7.55508 249.536 7.4123 249.536 7.24355C249.536 7.0748 249.594 6.93201 249.711 6.81518C249.834 6.69187 249.987 6.63021 250.168 6.63021C250.35 6.63021 250.499 6.68862 250.616 6.80545C250.74 6.91578 250.801 7.05533 250.801 7.22407C250.801 7.39931 250.74 7.54859 250.616 7.67191C250.499 7.78874 250.35 7.84715 250.168 7.84715ZM254.932 13.6982C254.796 13.815 254.627 13.9059 254.426 13.9708C254.225 14.0292 254.017 14.0584 253.803 14.0584C253.283 14.0584 252.881 13.9189 252.596 13.6398C252.31 13.3607 252.167 12.9615 252.167 12.4423V9.60928H251.291V8.84017H252.167V7.71085H253.102V8.84017H254.582V9.60928H253.102V12.4034C253.102 12.6825 253.17 12.8966 253.306 13.0459C253.449 13.1952 253.65 13.2698 253.91 13.2698C254.195 13.2698 254.439 13.1887 254.64 13.0264L254.932 13.6982ZM260.165 11.4493C260.165 11.5207 260.158 11.6148 260.145 11.7316H255.959C256.017 12.1859 256.215 12.5527 256.553 12.8317C256.897 13.1043 257.322 13.2406 257.828 13.2406C258.445 13.2406 258.941 13.0329 259.318 12.6176L259.834 13.2212C259.6 13.4938 259.308 13.7014 258.958 13.8442C258.614 13.987 258.227 14.0584 257.799 14.0584C257.254 14.0584 256.77 13.9481 256.348 13.7274C255.927 13.5002 255.599 13.1855 255.365 12.7831C255.138 12.3807 255.024 11.9263 255.024 11.4201C255.024 10.9203 255.135 10.4692 255.355 10.0668C255.583 9.66445 255.891 9.35291 256.28 9.13224C256.676 8.90508 257.121 8.79149 257.614 8.79149C258.107 8.79149 258.545 8.90508 258.928 9.13224C259.318 9.35291 259.62 9.66445 259.834 10.0668C260.054 10.4692 260.165 10.9301 260.165 11.4493ZM257.614 9.58007C257.166 9.58007 256.79 9.71637 256.485 9.98896C256.186 10.2616 256.011 10.6185 255.959 11.0599H259.269C259.217 10.625 259.039 10.2713 258.734 9.9987C258.435 9.71961 258.062 9.58007 257.614 9.58007ZM265.421 14.0779C264.908 14.0779 264.411 14 263.931 13.8442C263.457 13.682 263.084 13.4743 262.811 13.2212L263.172 12.4618C263.431 12.6954 263.762 12.8869 264.165 13.0362C264.574 13.179 264.992 13.2504 265.421 13.2504C265.985 13.2504 266.407 13.1563 266.686 12.968C266.965 12.7733 267.105 12.517 267.105 12.1989C267.105 11.9653 267.027 11.7771 266.871 11.6343C266.722 11.485 266.534 11.3714 266.306 11.2935C266.086 11.2156 265.771 11.128 265.362 11.0307C264.849 10.9073 264.434 10.784 264.116 10.6607C263.804 10.5374 263.535 10.3492 263.308 10.0961C263.087 9.83644 262.977 9.48921 262.977 9.05435C262.977 8.69089 263.071 8.36313 263.259 8.07107C263.454 7.779 263.746 7.54535 264.135 7.37011C264.525 7.19487 265.008 7.10725 265.586 7.10725C265.988 7.10725 266.384 7.15917 266.774 7.26302C267.163 7.36686 267.497 7.51614 267.777 7.71085L267.455 8.48969C267.17 8.30796 266.865 8.17167 266.54 8.0808C266.216 7.98345 265.898 7.93477 265.586 7.93477C265.034 7.93477 264.619 8.03537 264.34 8.23657C264.067 8.43777 263.931 8.69738 263.931 9.01541C263.931 9.24906 264.009 9.44053 264.165 9.58981C264.32 9.7326 264.512 9.84618 264.739 9.93055C264.973 10.0084 265.287 10.0928 265.683 10.1837C266.196 10.307 266.608 10.4303 266.92 10.5536C267.231 10.6769 267.497 10.8652 267.718 11.1183C267.945 11.3714 268.059 11.7122 268.059 12.1405C268.059 12.4975 267.962 12.8252 267.767 13.1238C267.572 13.4159 267.277 13.6495 266.881 13.8248C266.485 13.9935 265.998 14.0779 265.421 14.0779ZM273.619 11.4493C273.619 11.5207 273.612 11.6148 273.599 11.7316H269.413C269.471 12.1859 269.669 12.5527 270.007 12.8317C270.351 13.1043 270.776 13.2406 271.282 13.2406C271.899 13.2406 272.395 13.0329 272.772 12.6176L273.288 13.2212C273.054 13.4938 272.762 13.7014 272.412 13.8442C272.068 13.987 271.681 14.0584 271.253 14.0584C270.708 14.0584 270.224 13.9481 269.802 13.7274C269.381 13.5002 269.053 13.1855 268.819 12.7831C268.592 12.3807 268.478 11.9263 268.478 11.4201C268.478 10.9203 268.589 10.4692 268.809 10.0668C269.037 9.66445 269.345 9.35291 269.734 9.13224C270.13 8.90508 270.575 8.79149 271.068 8.79149C271.561 8.79149 271.999 8.90508 272.382 9.13224C272.772 9.35291 273.074 9.66445 273.288 10.0668C273.508 10.4692 273.619 10.9301 273.619 11.4493ZM271.068 9.58007C270.62 9.58007 270.244 9.71637 269.939 9.98896C269.64 10.2616 269.465 10.6185 269.413 11.0599H272.723C272.671 10.625 272.493 10.2713 272.188 9.9987C271.889 9.71961 271.516 9.58007 271.068 9.58007ZM279.463 8.84017V13.299C279.463 14.2012 279.239 14.8665 278.791 15.2948C278.343 15.7297 277.675 15.9471 276.786 15.9471C276.299 15.9471 275.835 15.879 275.394 15.7427C274.952 15.6129 274.595 15.4246 274.323 15.178L274.771 14.4576C275.011 14.6653 275.306 14.8275 275.656 14.9443C276.013 15.0677 276.38 15.1293 276.757 15.1293C277.36 15.1293 277.805 14.9865 278.09 14.701C278.382 14.4154 278.528 13.9805 278.528 13.3964V12.9875C278.308 13.2536 278.035 13.4548 277.711 13.5911C277.393 13.7209 277.045 13.7858 276.669 13.7858C276.176 13.7858 275.728 13.682 275.325 13.4743C274.93 13.2601 274.618 12.9648 274.391 12.5883C274.164 12.2054 274.05 11.7706 274.05 11.2838C274.05 10.797 274.164 10.3654 274.391 9.98896C274.618 9.60603 274.93 9.31072 275.325 9.10303C275.728 8.89534 276.176 8.79149 276.669 8.79149C277.058 8.79149 277.419 8.86289 277.75 9.00568C278.087 9.14846 278.363 9.3594 278.577 9.63849V8.84017H279.463ZM276.776 12.968C277.114 12.968 277.415 12.8966 277.681 12.7539C277.954 12.6111 278.165 12.4131 278.314 12.16C278.47 11.9004 278.548 11.6083 278.548 11.2838C278.548 10.784 278.382 10.3816 278.051 10.0766C277.72 9.76505 277.295 9.60928 276.776 9.60928C276.25 9.60928 275.822 9.76505 275.491 10.0766C275.16 10.3816 274.994 10.784 274.994 11.2838C274.994 11.6083 275.069 11.9004 275.218 12.16C275.374 12.4131 275.585 12.6111 275.851 12.7539C276.124 12.8966 276.432 12.968 276.776 12.968ZM285.669 8.84017V14H284.783V13.2212C284.595 13.4873 284.345 13.695 284.033 13.8442C283.728 13.987 283.394 14.0584 283.03 14.0584C282.342 14.0584 281.801 13.8702 281.405 13.4938C281.009 13.1108 280.811 12.5494 280.811 11.8095V8.84017H281.745V11.7024C281.745 12.2022 281.865 12.5819 282.106 12.8415C282.346 13.0946 282.69 13.2212 283.138 13.2212C283.631 13.2212 284.02 13.0719 284.306 12.7733C284.591 12.4748 284.734 12.0529 284.734 11.5077V8.84017H285.669ZM287.954 9.70663C288.117 9.40808 288.357 9.18092 288.675 9.02515C288.993 8.86938 289.379 8.79149 289.833 8.79149V9.6969C289.781 9.69041 289.71 9.68716 289.619 9.68716C289.113 9.68716 288.714 9.83969 288.422 10.1447C288.136 10.4433 287.993 10.8717 287.993 11.4298V14H287.059V8.84017H287.954V9.70663ZM292.758 14.0584C292.245 14.0584 291.785 13.9448 291.376 13.7177C290.967 13.4905 290.646 13.179 290.412 12.7831C290.185 12.3807 290.071 11.9263 290.071 11.4201C290.071 10.9138 290.185 10.4628 290.412 10.0668C290.646 9.66445 290.967 9.35291 291.376 9.13224C291.785 8.90508 292.245 8.79149 292.758 8.79149C293.271 8.79149 293.728 8.90508 294.131 9.13224C294.54 9.35291 294.858 9.66445 295.085 10.0668C295.319 10.4628 295.435 10.9138 295.435 11.4201C295.435 11.9263 295.319 12.3807 295.085 12.7831C294.858 13.179 294.54 13.4905 294.131 13.7177C293.728 13.9448 293.271 14.0584 292.758 14.0584ZM292.758 13.2406C293.089 13.2406 293.384 13.166 293.644 13.0167C293.91 12.8609 294.118 12.6468 294.267 12.3742C294.416 12.0951 294.491 11.7771 294.491 11.4201C294.491 11.0631 294.416 10.7483 294.267 10.4757C294.118 10.1967 293.91 9.98247 293.644 9.8332C293.384 9.68392 293.089 9.60928 292.758 9.60928C292.427 9.60928 292.129 9.68392 291.862 9.8332C291.603 9.98247 291.395 10.1967 291.239 10.4757C291.09 10.7483 291.015 11.0631 291.015 11.4201C291.015 11.7771 291.09 12.0951 291.239 12.3742C291.395 12.6468 291.603 12.8609 291.862 13.0167C292.129 13.166 292.427 13.2406 292.758 13.2406Z" fill="white"></path><path d="M198.5 41.4168C198.5 41.4168 216.417 37.8335 216.417 10.9585L198.5 5.5835L180.583 10.9585C180.583 39.6252 198.5 41.4168 198.5 41.4168ZM206.409 18.1252L196.708 27.8252L190.591 21.7085L193.125 19.1751L196.708 22.7584L203.875 15.5917L206.409 18.1252Z" fill="white"></path></svg> 